<svg width="27" height="19" viewBox="0 0 27 19" fill="none" xmlns="http://www.w3.org/2000/svg">
<path d="M11.7531 10.1639L11.7509 9.65241C11.7509 7.52671 11.8753 5.58877 12.0629 4.32544L12.2271 3.53984C12.3185 3.12377 12.4387 2.65002 12.5639 2.40818C13.0225 1.52353 13.9191 0.976196 14.8787 0.976196H14.9622C15.5878 0.99688 16.902 1.54581 16.902 1.5649C19.0166 2.45217 23.0963 5.13001 24.9805 7.03909L25.528 7.61224C25.6714 7.76758 25.8325 7.95143 25.9325 8.09473C26.2666 8.53706 26.4336 9.08439 26.4336 9.63173C26.4336 10.2427 26.2461 10.8107 25.8915 11.2753L25.329 11.8824L25.2029 12.012C23.4933 13.8656 19.0292 16.8966 16.694 17.8242L16.3414 17.9594C15.9171 18.1114 15.3227 18.2928 14.9622 18.3095C14.5037 18.3095 14.0656 18.2029 13.6481 17.9929C13.1265 17.6986 12.7105 17.234 12.4804 16.6866C12.3339 16.3079 12.1038 15.1703 12.1038 15.1496C11.8929 14.0026 11.7706 12.1926 11.7531 10.1639ZM0.433594 9.64223C0.433594 8.43141 1.40582 7.4497 2.60496 7.4497L7.94829 7.92226C8.88901 7.92226 9.65166 8.69235 9.65166 9.64223C9.65166 10.5937 8.88901 11.3622 7.94829 11.3622L2.60496 11.8347C1.40582 11.8347 0.433594 10.853 0.433594 9.64223Z" fill="#6F59F4"/>
</svg>
