<svg width="101" height="77" viewBox="0 0 101 77" fill="none" xmlns="http://www.w3.org/2000/svg">
<circle cx="2.5" cy="2.5" r="2.5" fill="#0A6208"/>
<circle cx="26.5" cy="2.5" r="2.5" fill="#0A6208"/>
<circle cx="50.5" cy="2.5" r="2.5" fill="#0A6208"/>
<circle cx="74.5" cy="2.5" r="2.5" fill="#0A6208"/>
<circle cx="98.5" cy="2.5" r="2.5" fill="#0A6208"/>
<circle cx="2.5" cy="19.5" r="2.5" fill="#0A6208"/>
<circle cx="26.5" cy="19.5" r="2.5" fill="#0A6208"/>
<circle cx="50.5" cy="19.5" r="2.5" fill="#0A6208"/>
<circle cx="74.5" cy="19.5" r="2.5" fill="#0A6208"/>
<circle cx="98.5" cy="19.5" r="2.5" fill="#0A6208"/>
<circle cx="2.5" cy="36.5" r="2.5" fill="#0A6208"/>
<circle cx="26.5" cy="36.5" r="2.5" fill="#0A6208"/>
<circle cx="50.5" cy="36.5" r="2.5" fill="#0A6208"/>
<circle cx="74.5" cy="36.5" r="2.5" fill="#0A6208"/>
<circle cx="98.5" cy="36.5" r="2.5" fill="#0A6208"/>
<circle cx="2.5" cy="53.5" r="2.5" fill="#0A6208"/>
<circle cx="26.5" cy="53.5" r="2.5" fill="#0A6208"/>
<circle cx="50.5" cy="53.5" r="2.5" fill="#0A6208"/>
<circle cx="74.5" cy="53.5" r="2.5" fill="#0A6208"/>
<circle cx="98.5" cy="53.5" r="2.5" fill="#0A6208"/>
<circle cx="2.5" cy="2.5" r="2.5" transform="matrix(1 0 0 -1 0 77)" fill="#0A6208"/>
<circle cx="2.5" cy="2.5" r="2.5" transform="matrix(1 0 0 -1 24 77)" fill="#0A6208"/>
<circle cx="2.5" cy="2.5" r="2.5" transform="matrix(1 0 0 -1 48 77)" fill="#0A6208"/>
<circle cx="2.5" cy="2.5" r="2.5" transform="matrix(1 0 0 -1 72 77)" fill="#0A6208"/>
<circle cx="2.5" cy="2.5" r="2.5" transform="matrix(1 0 0 -1 96 77)" fill="#0A6208"/>
</svg>
