<svg width="49" height="49" viewBox="0 0 49 49" fill="none" xmlns="http://www.w3.org/2000/svg">
<path d="M33.057 1C36.6165 1 39 3.499 39 7.216V15.7955C39 19.501 36.6165 22 33.057 22H23.9535C20.394 22 18 19.501 18 15.7955V7.216C18 3.499 20.394 1 23.9535 1H33.057ZM32.889 8.35C32.532 7.993 31.944 7.993 31.587 8.35L27.2505 12.6865L25.413 10.849C25.056 10.492 24.468 10.492 24.111 10.849C23.754 11.206 23.754 11.7835 24.111 12.151L26.61 14.6395C26.7885 14.818 27.0195 14.902 27.2505 14.902C27.492 14.902 27.723 14.818 27.9015 14.6395L32.889 9.652C33.246 9.295 33.246 8.7175 32.889 8.35Z" fill="#39A64B"/>
</svg>
